# xmcd
# 
# Track frame offsets:
#     150
#     20257
#     48910
#     78266
#     95404
#     125625
# 
# Disc length: 2013
# 
# Revision: 7
# Processed by: cddbd v1.5.2PL0 Copyright (c) Steve Scherf et al.
# Submitted via: fre:ac v1.0.31
# 
DISCID=3f07db06
DTITLE=Eric Clapton - Unplugged Disc 2 Deluxe Edition
DYEAR=2013
DGENRE=Rock/Pop
TTITLE0=Circus
TTITLE1=My Father's Eyes (Take 1)
TTITLE2=Running On Faith (Take 1)
TTITLE3=Walkin' Blues (Take 1)
TTITLE4=My Father's Eyes (Take 2)
TTITLE5=Worried Life Blues
EXTD=Year: 1992   (2013 @ Viacom International Inc.)   2 CD and 1 DVD\n\n\n\n\n\n                                                    http://www.ericclapton.com
EXTT0=
EXTT1=
EXTT2=
EXTT3=
EXTT4=
EXTT5=
PLAYORDER=
